# xmcd
#
# Track frame offsets:
#	150
#	31125
#	52830
#	77460
#	102403
#	126925
#	143978
#	168143
#	192465
#	223405
#	242571
#	263599
#	283021
#	303629
#
# Disc length: 4394 seconds
#
# Revision: 1
# Processed by: cddbd v1.5.2PL0 Copyright (c) Steve Scherf et al.
# Submitted via: audiograbber 1.83.01
#
DISCID=c511280e
DTITLE=Eagles - Take It Easy - Live In The USA CD07
DYEAR=1900
DGENRE=Rock
TTITLE0=Hotel California
TTITLE1=Victim Of Love
TTITLE2=New Kid In Town
TTITLE3=Wasted Time
TTITLE4=Pretty Maids All In A Row
TTITLE5=Girl From Yesterday
TTITLE6=I Can't Tell You Why
TTITLE7=Ordinary Average Guy
TTITLE8=Lyin' Eyes
TTITLE9=One Of These Nights
TTITLE10=Tequila Sunrise
TTITLE11=Help Me Thru The Night
TTITLE12=Love Will Keep Us Alive
TTITLE13=Heart Of The Matter
EXTD=
EXTT0=
EXTT1=
EXTT2=
EXTT3=
EXTT4=
EXTT5=
EXTT6=
EXTT7=
EXTT8=
EXTT9=
EXTT10=
EXTT11=
EXTT12=
EXTT13=
PLAYORDER=
